<svg xmlns="http://www.w3.org/2000/svg" version="1.1" xmlns:xlink="http://www.w3.org/1999/xlink" xmlns:svgjs="http://svgjs.com/svgjs" width="430" height="5800" preserveAspectRatio="none" viewBox="0 0 430 5800"><g mask="url(&quot;#SvgjsMask1057&quot;)" fill="none"><path d="M73.43,1657.368C96.268,1656.588,119.489,1649.267,131.02,1629.539C142.643,1609.655,137.83,1585.67,127.316,1565.178C115.559,1542.265,99.18,1517.696,73.43,1517.3C47.271,1516.897,29.32,1540.617,16.592,1563.474C4.303,1585.541,-4.482,1612.113,8.598,1633.72C21.366,1654.812,48.789,1658.21,73.43,1657.368" fill="rgba(143, 68, 253, 0.7)" class="triangle-float2"></path><path d="M379.10423265636587 132.27682090131933L357.4524000192276 51.47108142254126 298.29849317758783 153.9286535384576z" fill="rgba(143, 68, 253, 0.7)" class="triangle-float3"></path><path d="M199.433,945.441C227.453,945.423,252.785,930.056,267.263,906.066C282.273,881.195,286.846,849.979,272.179,824.905C257.633,800.038,228.234,790.808,199.433,790.111C169.069,789.376,135.672,795.021,120.319,821.228C104.851,847.632,115.014,880.343,131.453,906.153C146.522,929.812,171.382,945.459,199.433,945.441" fill="rgba(143, 68, 253, 0.7)" class="triangle-float2"></path><path d="M207.90505456974148 1660.8621293554665L134.32760349470018 1680.5771479521643 200.68885692726747 1781.0858152663773z" fill="rgba(143, 68, 253, 0.7)" class="triangle-float1"></path><path d="M382.48,3570.097C409.618,3570.612,440.579,3571.803,455.504,3549.132C471.433,3524.935,464.881,3492.826,449.515,3468.268C435.11,3445.245,409.638,3432.538,382.48,3432.422C355.102,3432.305,328.529,3444.213,314.449,3467.693C299.98,3491.823,298.537,3523.011,314.106,3546.447C328.409,3567.977,356.637,3569.606,382.48,3570.097" fill="rgba(143, 68, 253, 0.7)" class="triangle-float2"></path><path d="M457.717,1011.599C496.739,1010.089,538.924,1004.931,559.495,971.737C580.93,937.148,574.867,892.274,552.886,858.03C532.582,826.398,495.286,811.978,457.717,813.175C422.328,814.303,392.748,834.729,372.502,863.777C347.884,899.097,319.813,942.881,341.315,980.18C362.827,1017.497,414.675,1013.265,457.717,1011.599" fill="rgba(143, 68, 253, 0.7)" class="triangle-float1"></path><path d="M482.814,826.327C523.214,827.103,555.344,796.288,575.213,761.104C594.699,726.597,603.573,683.746,582.163,650.398C561.944,618.905,520.227,618.148,482.814,617.185C442.763,616.154,395.186,610.921,374.189,645.042C352.697,679.968,375.291,722.489,396.369,757.666C416.641,791.498,443.381,825.569,482.814,826.327" fill="rgba(143, 68, 253, 0.7)" class="triangle-float3"></path><path d="M436.905,3320.151C473.849,3319.679,513.734,3314.75,533.661,3283.637C554.877,3250.513,552.414,3206.428,530.787,3173.571C510.971,3143.464,472.93,3137.789,436.905,3136.637C397.89,3135.389,353.88,3134.88,332.011,3167.214C308.191,3202.433,311.724,3251.1,335.773,3286.163C357.332,3317.597,398.791,3320.638,436.905,3320.151" fill="rgba(143, 68, 253, 0.7)" class="triangle-float1"></path><path d="M322.93579676146305 2530.9316169734316L372.61987451211564 2572.6215082893873 414.3097658280716 2522.937430538735 364.62568807741894 2481.247539222779z" fill="rgba(143, 68, 253, 0.7)" class="triangle-float1"></path><path d="M239.7 5235.78 a90.99 90.99 0 1 0 181.98 0 a90.99 90.99 0 1 0 -181.98 0z" fill="rgba(143, 68, 253, 0.7)" class="triangle-float3"></path><path d="M5.315718087344081 441.79176727835977L-55.040796313845014 519.0445828345029 22.212019242298048 579.401097235692 82.56853364348714 502.14828167954886z" fill="rgba(143, 68, 253, 0.7)" class="triangle-float3"></path><path d="M56.66021685734738 4821.574610165136L-34.20882682911511 4832.731925793845 67.81753248605654 4912.443653851598z" fill="rgba(143, 68, 253, 0.7)" class="triangle-float2"></path><path d="M165.2997484487413 3924.09430034913L90.39427248622879 3914.89706437385 114.05115650456479 4031.853896305259z" fill="rgba(143, 68, 253, 0.7)" class="triangle-float2"></path><path d="M138.92 2868.14 a113.41 113.41 0 1 0 226.82 0 a113.41 113.41 0 1 0 -226.82 0z" fill="rgba(143, 68, 253, 0.7)" class="triangle-float3"></path><path d="M28.27760969877453 2277.567789161433L-0.131016456629105 2383.1874910735633 92.63864422144364 2360.05741685226z" fill="rgba(143, 68, 253, 0.7)" class="triangle-float3"></path><path d="M322.38819449745716 3618.83749601285L437.0095452711653 3598.626659306196 416.79870856451146 3484.005308532488 302.17735779080334 3504.216145239142z" fill="rgba(143, 68, 253, 0.7)" class="triangle-float2"></path><path d="M178.84046552460106 2009.655989804596L222.08232847014534 2033.625345836991 236.4154310459661 1956.777873402477z" fill="rgba(143, 68, 253, 0.7)" class="triangle-float3"></path><path d="M391.51763332464304 4398.256570471884L335.1192638313419 4326.069949369599 262.93264272905776 4382.468318862901 319.3310122223589 4454.654939965185z" fill="rgba(143, 68, 253, 0.7)" class="triangle-float3"></path><path d="M224.41366756291913 5547.467215025492L310.76205790482237 5553.505282678555 316.80012555788545 5467.156892336652 230.4517352159822 5461.118824683589z" fill="rgba(143, 68, 253, 0.7)" class="triangle-float1"></path><path d="M2.27 3980.49 a126.1 126.1 0 1 0 252.2 0 a126.1 126.1 0 1 0 -252.2 0z" fill="rgba(143, 68, 253, 0.7)" class="triangle-float3"></path></g><defs><mask id="SvgjsMask1057"><rect width="430" height="5800" fill="#ffffff"></rect></mask><style>
            @keyframes float1 {
                0%{transform: translate(0, 0)}
                50%{transform: translate(-10px, 0)}
                100%{transform: translate(0, 0)}
            }

            .triangle-float1 {
                animation: float1 5s infinite;
            }

            @keyframes float2 {
                0%{transform: translate(0, 0)}
                50%{transform: translate(-5px, -5px)}
                100%{transform: translate(0, 0)}
            }

            .triangle-float2 {
                animation: float2 4s infinite;
            }

            @keyframes float3 {
                0%{transform: translate(0, 0)}
                50%{transform: translate(0, -10px)}
                100%{transform: translate(0, 0)}
            }

            .triangle-float3 {
                animation: float3 6s infinite;
            }
        </style></defs></svg>