<svg xmlns="http://www.w3.org/2000/svg" version="1.1" xmlns:xlink="http://www.w3.org/1999/xlink" xmlns:svgjs="http://svgjs.com/svgjs" width="770" height="3300" preserveAspectRatio="none" viewBox="0 0 770 3300"><g mask="url(&quot;#SvgjsMask1030&quot;)" fill="none"><path d="M221.34273311313592 1416.1776760593025L262.4692292205534 1303.1835566628845 149.47510982413536 1262.057060555467 108.34861371671784 1375.051179951885z" fill="rgba(143, 68, 253, 0.85)" class="triangle-float2"></path><path d="M161.9403355857571 211.81430540108L39.28576272955607 240.1313447696697 67.60280209814579 362.78591762587075 190.25737495434683 334.46887825728106z" fill="rgba(143, 68, 253, 0.85)" class="triangle-float3"></path><path d="M-39.05 1747.31 a206.83 206.83 0 1 0 413.66 0 a206.83 206.83 0 1 0 -413.66 0z" fill="rgba(143, 68, 253, 0.85)" class="triangle-float1"></path><path d="M573.7512698815373 1748.2591105871313L465.67359693705225 1798.656557156716 516.0710435066369 1906.7342301012009 624.1487164511219 1856.3367835316162z" fill="rgba(143, 68, 253, 0.85)" class="triangle-float3"></path><path d="M121.91557387749492 2331.0864235299086L254.03639491866792 2364.0278439741055 286.9778153628648 2231.9070229329327 154.85699432169184 2198.965602488736z" fill="rgba(143, 68, 253, 0.85)" class="triangle-float3"></path><path d="M642.4115678587259 2385.189754039338L494.0896139295486 2356.358886782674 465.2587466728846 2504.6808407118515 613.5807006020619 2533.511707968515z" fill="rgba(143, 68, 253, 0.85)" class="triangle-float3"></path><path d="M128.956,37.161C158.204,39.458,188.992,26.386,202.308,0.244C214.807,-24.295,201.205,-52.067,186.153,-75.128C172.85,-95.51,153.264,-110.905,128.956,-112.134C102.283,-113.482,73.574,-104.909,60.782,-81.465C48.353,-58.686,60.241,-32.396,73.171,-9.898C86.163,12.709,102.962,35.119,128.956,37.161" fill="rgba(143, 68, 253, 0.85)" class="triangle-float1"></path><path d="M121.981,647.447C152.03,647.443,177.765,628.179,192.889,602.213C208.124,576.055,211.865,544.315,197.601,517.615C182.511,489.369,153.965,467.885,121.981,469.488C91.972,470.992,72.604,498.09,58.441,524.59C45.306,549.166,38.235,577.482,51.036,602.234C64.843,628.931,91.925,647.451,121.981,647.447" fill="rgba(143, 68, 253, 0.85)" class="triangle-float2"></path><path d="M168.123991273677 1947.377442359762L160.9124670327023 1809.7733625908581 23.308387263798352 1816.9848868318327 30.519911504773063 1954.5889666007367z" fill="rgba(143, 68, 253, 0.85)" class="triangle-float1"></path><path d="M192.46659496633902 893.4525252172143L222.47165156225614 704.008053686832 33.027180031873854 674.002997090915 3.022123435956729 863.4474686212972z" fill="rgba(143, 68, 253, 0.85)" class="triangle-float2"></path><path d="M503.09357261556187 1027.1627889412455L558.4023351406844 1151.7076048015279 630.0932386411782 1056.5705625539088z" fill="rgba(143, 68, 253, 0.85)" class="triangle-float3"></path><path d="M89.04163149059917 1534.740740718494L140.77032642050324 1327.2682773769423-66.70213692104852 1275.5395824470381-118.43083185095261 1483.0120457885898z" fill="rgba(143, 68, 253, 0.85)" class="triangle-float3"></path></g><defs><mask id="SvgjsMask1030"><rect width="770" height="3300" fill="#ffffff"></rect></mask><style>
            @keyframes float1 {
                0%{transform: translate(0, 0)}
                50%{transform: translate(-10px, 0)}
                100%{transform: translate(0, 0)}
            }

            .triangle-float1 {
                animation: float1 5s infinite;
            }

            @keyframes float2 {
                0%{transform: translate(0, 0)}
                50%{transform: translate(-5px, -5px)}
                100%{transform: translate(0, 0)}
            }

            .triangle-float2 {
                animation: float2 4s infinite;
            }

            @keyframes float3 {
                0%{transform: translate(0, 0)}
                50%{transform: translate(0, -10px)}
                100%{transform: translate(0, 0)}
            }

            .triangle-float3 {
                animation: float3 6s infinite;
            }
        </style></defs></svg>