<?xml version="1.0" standalone="no"?>
<!DOCTYPE svg PUBLIC "-//W3C//DTD SVG 20010904//EN"
 "http://www.w3.org/TR/2001/REC-SVG-20010904/DTD/svg10.dtd">
<svg version="1.0" xmlns="http://www.w3.org/2000/svg"
 width="260.000000pt" height="260.000000pt" viewBox="0 0 260.000000 260.000000"
 preserveAspectRatio="xMidYMid meet">
<metadata>
Created by potrace 1.14, written by Peter Selinger 2001-2017
</metadata>
<g transform="translate(0.000000,260.000000) scale(0.100000,-0.100000)"
fill="#000000" stroke="none">
<path d="M1130 2579 c-25 -4 -63 -10 -84 -14 -123 -21 -328 -109 -466 -200
-101 -67 -263 -231 -332 -335 -119 -180 -194 -375 -216 -565 -9 -73 -8 -275 1
-330 50 -310 169 -550 374 -752 194 -191 464 -325 727 -361 79 -11 344 -6 411
7 268 54 498 175 679 355 180 179 288 369 350 617 24 92 26 120 26 298 0 204
-9 272 -51 401 -33 99 -95 226 -156 318 -51 77 -265 312 -284 312 -5 0 -39 21
-76 46 -140 94 -326 168 -495 198 -88 15 -331 19 -408 5z"/>
</g>
</svg>
